<mxfile host="app.diagrams.net" agent="Mozilla/5.0 (Macintosh; Intel Mac OS X 10_15_7) AppleWebKit/605.1.15 (KHTML, like Gecko) Version/26.0 Safari/605.1.15" version="28.2.5">
  <diagram name="Page-1" id="w5QijO5z5ekONO9qi4NO">
    <mxGraphModel dx="1922" dy="1866" grid="1" gridSize="10" guides="1" tooltips="1" connect="1" arrows="1" fold="1" page="1" pageScale="1" pageWidth="850" pageHeight="1100" math="0" shadow="0">
      <root>
        <mxCell id="0" />
        <mxCell id="1" parent="0" />
        <mxCell id="iMSMzoMcXIIhopY8OTby-1" value="&lt;p style=&quot;text-align: left; margin: 0px; font-style: normal; font-variant-caps: normal; font-width: normal; line-height: normal; font-family: &amp;quot;Helvetica Neue&amp;quot;; font-size-adjust: none; font-kerning: auto; font-variant-alternates: normal; font-variant-ligatures: normal; font-variant-numeric: normal; font-variant-east-asian: normal; font-variant-position: normal; font-feature-settings: normal; font-optical-sizing: auto; font-variation-settings: normal;&quot;&gt;&lt;br&gt;&lt;/p&gt;" style="text;html=1;align=center;verticalAlign=middle;resizable=0;points=[];autosize=1;strokeColor=none;fillColor=none;" vertex="1" parent="1">
          <mxGeometry x="100" y="78" width="20" height="30" as="geometry" />
        </mxCell>
        <mxCell id="iMSMzoMcXIIhopY8OTby-3" value="&lt;p style=&quot;margin: 0px; font-style: normal; font-variant-caps: normal; font-width: normal; font-size: 13px; line-height: normal; font-family: &amp;quot;Helvetica Neue&amp;quot;; font-size-adjust: none; font-kerning: auto; font-variant-alternates: normal; font-variant-ligatures: normal; font-variant-numeric: normal; font-variant-east-asian: normal; font-variant-position: normal; font-variant-emoji: normal; font-feature-settings: normal; font-optical-sizing: auto; font-variation-settings: normal;&quot;&gt;&lt;b&gt;Universal Self (Atman/Brahman) – The Cosmic Unity&lt;/b&gt;&lt;/p&gt;&lt;p style=&quot;margin: 0px; font-style: normal; font-variant-caps: normal; font-width: normal; font-size: 13px; line-height: normal; font-family: &amp;quot;Helvetica Neue&amp;quot;; font-size-adjust: none; font-kerning: auto; font-variant-alternates: normal; font-variant-ligatures: normal; font-variant-numeric: normal; font-variant-east-asian: normal; font-variant-position: normal; font-variant-emoji: normal; font-feature-settings: normal; font-optical-sizing: auto; font-variation-settings: normal;&quot;&gt;&lt;b&gt;&lt;span style=&quot;white-space: pre;&quot;&gt;&#x9;&lt;/span&gt;Definition&lt;/b&gt;: The eternal, divine essence pervading all existence, transcending individuality.&amp;nbsp;&lt;/p&gt;&lt;p style=&quot;margin: 0px; font-style: normal; font-variant-caps: normal; font-width: normal; font-size: 13px; line-height: normal; font-family: &amp;quot;Helvetica Neue&amp;quot;; font-size-adjust: none; font-kerning: auto; font-variant-alternates: normal; font-variant-ligatures: normal; font-variant-numeric: normal; font-variant-east-asian: normal; font-variant-position: normal; font-variant-emoji: normal; font-feature-settings: normal; font-optical-sizing: auto; font-variation-settings: normal;&quot;&gt;Atman is the individual self, the inner consciousness or soul present within each person,&amp;nbsp;&lt;/p&gt;&lt;p style=&quot;margin: 0px; font-style: normal; font-variant-caps: normal; font-width: normal; font-size: 13px; line-height: normal; font-family: &amp;quot;Helvetica Neue&amp;quot;; font-size-adjust: none; font-kerning: auto; font-variant-alternates: normal; font-variant-ligatures: normal; font-variant-numeric: normal; font-variant-east-asian: normal; font-variant-position: normal; font-variant-emoji: normal; font-feature-settings: normal; font-optical-sizing: auto; font-variation-settings: normal;&quot;&gt;Brahman is the universal, all-encompassing cosmic consciousness or Absolute.&lt;/p&gt;&lt;p style=&quot;margin: 0px; font-style: normal; font-variant-caps: normal; font-width: normal; font-size: 13px; line-height: normal; font-family: &amp;quot;Helvetica Neue&amp;quot;; font-size-adjust: none; font-kerning: auto; font-variant-alternates: normal; font-variant-ligatures: normal; font-variant-numeric: normal; font-variant-east-asian: normal; font-variant-position: normal; font-variant-emoji: normal; font-feature-settings: normal; font-optical-sizing: auto; font-variation-settings: normal;&quot;&gt;&lt;b&gt;&lt;span style=&quot;white-space: pre;&quot;&gt;&#x9;&lt;/span&gt;Role&lt;/b&gt;: The ultimate reality that individual consciousness merges with, providing the context for all mental and spiritual processes.&lt;/p&gt;&lt;p style=&quot;margin: 0px; font-style: normal; font-variant-caps: normal; font-width: normal; font-size: 13px; line-height: normal; font-family: &amp;quot;Helvetica Neue&amp;quot;; font-size-adjust: none; font-kerning: auto; font-variant-alternates: normal; font-variant-ligatures: normal; font-variant-numeric: normal; font-variant-east-asian: normal; font-variant-position: normal; font-variant-emoji: normal; font-feature-settings: normal; font-optical-sizing: auto; font-variation-settings: normal;&quot;&gt;&lt;b&gt;&lt;span style=&quot;white-space: pre;&quot;&gt;&#x9;&lt;/span&gt;Connection&lt;/b&gt;: Consciousness is an expression of the universal self, linking all aspects of existence to this unified essence.&lt;/p&gt;&lt;div&gt;&lt;br&gt;&lt;/div&gt;" style="text;html=1;align=left;verticalAlign=middle;whiteSpace=wrap;rounded=0;" vertex="1" parent="1">
          <mxGeometry x="30" y="-710" width="810" height="140" as="geometry" />
        </mxCell>
        <mxCell id="iMSMzoMcXIIhopY8OTby-4" value="&lt;p style=&quot;text-align: left; margin: 0px; font-style: normal; font-variant-caps: normal; font-width: normal; font-size: 13px; line-height: normal; font-family: &amp;quot;Helvetica Neue&amp;quot;; font-size-adjust: none; font-kerning: auto; font-variant-alternates: normal; font-variant-ligatures: normal; font-variant-numeric: normal; font-variant-east-asian: normal; font-variant-position: normal; font-variant-emoji: normal; font-feature-settings: normal; font-optical-sizing: auto; font-variation-settings: normal;&quot;&gt;&lt;b&gt;Consciousness (Chitta) – The Universal Source&lt;/b&gt;&lt;/p&gt;&lt;p style=&quot;text-align: left; margin: 0px; font-style: normal; font-variant-caps: normal; font-width: normal; font-size: 13px; line-height: normal; font-family: &amp;quot;Helvetica Neue&amp;quot;; font-size-adjust: none; font-kerning: auto; font-variant-alternates: normal; font-variant-ligatures: normal; font-variant-numeric: normal; font-variant-east-asian: normal; font-variant-position: normal; font-variant-emoji: normal; font-feature-settings: normal; font-optical-sizing: auto; font-variation-settings: normal;&quot;&gt;&lt;b&gt;&lt;span style=&quot;white-space: pre;&quot;&gt;&#x9;&lt;/span&gt;Definition&lt;/b&gt;: The infinite, pure awareness that is the essence of existence, connecting the individual to the universal self (Atman or Brahman).&lt;/p&gt;&lt;p style=&quot;text-align: left; margin: 0px; font-style: normal; font-variant-caps: normal; font-width: normal; font-size: 13px; line-height: normal; font-family: &amp;quot;Helvetica Neue&amp;quot;; font-size-adjust: none; font-kerning: auto; font-variant-alternates: normal; font-variant-ligatures: normal; font-variant-numeric: normal; font-variant-east-asian: normal; font-variant-position: normal; font-variant-emoji: normal; font-feature-settings: normal; font-optical-sizing: auto; font-variation-settings: normal;&quot;&gt;&lt;b&gt;&lt;span style=&quot;white-space: pre;&quot;&gt;&#x9;&lt;/span&gt;Role&lt;/b&gt;: The foundational source from which all mental and existential phenomena arise, encompassing all levels of being.&lt;/p&gt;&lt;p style=&quot;text-align: left; margin: 0px; font-style: normal; font-variant-caps: normal; font-width: normal; font-size: 13px; line-height: normal; font-family: &amp;quot;Helvetica Neue&amp;quot;; font-size-adjust: none; font-kerning: auto; font-variant-alternates: normal; font-variant-ligatures: normal; font-variant-numeric: normal; font-variant-east-asian: normal; font-variant-position: normal; font-variant-emoji: normal; font-feature-settings: normal; font-optical-sizing: auto; font-variation-settings: normal;&quot;&gt;&lt;b&gt;&lt;span style=&quot;white-space: pre;&quot;&gt;&#x9;&lt;/span&gt;Connection&lt;/b&gt;: Underlies and unifies thoughts, emotions, memory, intellect, ego, mind, intelligence, decisions, and wisdom.&lt;/p&gt;&lt;div&gt;&lt;br&gt;&lt;/div&gt;" style="text;html=1;align=center;verticalAlign=middle;resizable=0;points=[];autosize=1;strokeColor=none;fillColor=none;" vertex="1" parent="1">
          <mxGeometry x="40" y="-570" width="860" height="90" as="geometry" />
        </mxCell>
        <mxCell id="iMSMzoMcXIIhopY8OTby-5" value="&lt;p style=&quot;margin: 0px; font-style: normal; font-variant-caps: normal; font-width: normal; font-size: 13px; line-height: normal; font-family: &amp;quot;Helvetica Neue&amp;quot;; font-size-adjust: none; font-kerning: auto; font-variant-alternates: normal; font-variant-ligatures: normal; font-variant-numeric: normal; font-variant-east-asian: normal; font-variant-position: normal; font-variant-emoji: normal; font-feature-settings: normal; font-optical-sizing: auto; font-variation-settings: normal;&quot;&gt;&lt;b&gt;Mind (Manomaya Kosha) – The Seat of Mental Activity&lt;/b&gt;&lt;/p&gt;&lt;p style=&quot;margin: 0px; font-style: normal; font-variant-caps: normal; font-width: normal; font-size: 13px; line-height: normal; font-family: &amp;quot;Helvetica Neue&amp;quot;; font-size-adjust: none; font-kerning: auto; font-variant-alternates: normal; font-variant-ligatures: normal; font-variant-numeric: normal; font-variant-east-asian: normal; font-variant-position: normal; font-variant-emoji: normal; font-feature-settings: normal; font-optical-sizing: auto; font-variation-settings: normal;&quot;&gt;&lt;b&gt;&lt;span style=&quot;white-space: pre;&quot;&gt;&#x9;&lt;/span&gt;Definition&lt;/b&gt;: The subtle layer of existence responsible for thoughts, emotions, memory, intellect, and ego.&lt;/p&gt;&lt;p style=&quot;margin: 0px; font-style: normal; font-variant-caps: normal; font-width: normal; font-size: 13px; line-height: normal; font-family: &amp;quot;Helvetica Neue&amp;quot;; font-size-adjust: none; font-kerning: auto; font-variant-alternates: normal; font-variant-ligatures: normal; font-variant-numeric: normal; font-variant-east-asian: normal; font-variant-position: normal; font-variant-emoji: normal; font-feature-settings: normal; font-optical-sizing: auto; font-variation-settings: normal;&quot;&gt;&lt;b&gt;&lt;span style=&quot;white-space: pre;&quot;&gt;&#x9;&lt;/span&gt;Role&lt;/b&gt;: Acts as the processing center for perceptions, experiences, and decision-making, influenced by prana (life force) and past impressions (samskaras).&lt;/p&gt;" style="text;html=1;align=left;verticalAlign=middle;resizable=0;points=[];autosize=1;strokeColor=none;fillColor=none;" vertex="1" parent="1">
          <mxGeometry x="70" y="-470" width="940" height="60" as="geometry" />
        </mxCell>
        <mxCell id="iMSMzoMcXIIhopY8OTby-6" value="&lt;div style=&quot;text-align: left;&quot;&gt;&lt;b style=&quot;text-align: center; font-family: &amp;quot;Helvetica Neue&amp;quot;; font-size: 13px;&quot;&gt;&lt;div style=&quot;text-align: left; display: inline !important;&quot;&gt;&lt;b&gt;Thoughts&lt;/b&gt;&lt;span style=&quot;font-weight: normal;&quot;&gt;:&lt;/span&gt;&lt;/div&gt;&lt;/b&gt;&lt;br&gt;&lt;/div&gt;&lt;div style=&quot;text-align: left;&quot;&gt;&lt;br&gt;&lt;/div&gt;&lt;div style=&quot;text-align: left;&quot;&gt;&lt;b style=&quot;text-align: center; font-family: &amp;quot;Helvetica Neue&amp;quot;; font-size: 13px;&quot;&gt;&lt;div style=&quot;text-align: left; display: inline !important;&quot;&gt;&lt;b&gt;&lt;span style=&quot;white-space: pre;&quot;&gt;&#x9;&lt;/span&gt;Definition&lt;/b&gt;&lt;span style=&quot;font-weight: normal;&quot;&gt;: Mental impressions or ideas arising from external stimuli, past impressions, or consciousness.&lt;/span&gt;&lt;/div&gt;&lt;/b&gt;&lt;br&gt;&lt;/div&gt;&lt;div style=&quot;text-align: left;&quot;&gt;&lt;b style=&quot;text-align: center; font-family: &amp;quot;Helvetica Neue&amp;quot;; font-size: 13px;&quot;&gt;&lt;div style=&quot;text-align: left; display: inline !important;&quot;&gt;&lt;b&gt;&lt;span style=&quot;white-space: pre;&quot;&gt;&#x9;&lt;/span&gt;Role&lt;/b&gt;&lt;span style=&quot;font-weight: normal;&quot;&gt;: Serve as the raw material of mental activity, shaped by perception and context.&lt;/span&gt;&lt;/div&gt;&lt;/b&gt;&lt;br&gt;&lt;/div&gt;&lt;div style=&quot;text-align: left;&quot;&gt;&lt;b style=&quot;text-align: center; font-family: &amp;quot;Helvetica Neue&amp;quot;; font-size: 13px;&quot;&gt;&lt;div style=&quot;text-align: left; display: inline !important;&quot;&gt;&lt;b&gt;&lt;span style=&quot;white-space: pre;&quot;&gt;&#x9;&lt;/span&gt;Source&lt;/b&gt;&lt;span style=&quot;font-weight: normal;&quot;&gt;: Originate from the interplay of consciousness, prana, and samskaras within the mind.&lt;/span&gt;&lt;/div&gt;&lt;/b&gt;&lt;br&gt;&lt;/div&gt;&lt;div style=&quot;text-align: left;&quot;&gt;&lt;br&gt;&lt;/div&gt;&lt;div style=&quot;text-align: left;&quot;&gt;&lt;br&gt;&lt;/div&gt;&lt;b style=&quot;font-family: &amp;quot;Helvetica Neue&amp;quot;; font-size: 13px;&quot;&gt;&lt;div style=&quot;text-align: left;&quot;&gt;&lt;b&gt;Emotions&lt;/b&gt;&lt;span style=&quot;font-weight: normal;&quot;&gt;:&lt;/span&gt;&lt;/div&gt;&lt;/b&gt;&lt;div style=&quot;text-align: left;&quot;&gt;&lt;b style=&quot;text-align: center; font-family: &amp;quot;Helvetica Neue&amp;quot;; font-size: 13px;&quot;&gt;&lt;div style=&quot;text-align: left; display: inline !important;&quot;&gt;&lt;b&gt;&lt;span style=&quot;white-space: pre;&quot;&gt;&#x9;&lt;/span&gt;Definition&lt;/b&gt;&lt;span style=&quot;font-weight: normal;&quot;&gt;: Feelings or affective states triggered by thoughts, experiences, or external events.&lt;/span&gt;&lt;/div&gt;&lt;/b&gt;&lt;br&gt;&lt;/div&gt;&lt;div style=&quot;text-align: left;&quot;&gt;&lt;b style=&quot;text-align: center; font-family: &amp;quot;Helvetica Neue&amp;quot;; font-size: 13px;&quot;&gt;&lt;div style=&quot;text-align: left; display: inline !important;&quot;&gt;&lt;b&gt;&lt;span style=&quot;white-space: pre;&quot;&gt;&#x9;&lt;/span&gt;Role&lt;/b&gt;&lt;span style=&quot;font-weight: normal;&quot;&gt;: Color thoughts and influence decisions, reflecting the mind’s response to stimuli.&lt;/span&gt;&lt;/div&gt;&lt;/b&gt;&lt;br&gt;&lt;/div&gt;&lt;div style=&quot;text-align: left;&quot;&gt;&lt;b style=&quot;text-align: center; font-family: &amp;quot;Helvetica Neue&amp;quot;; font-size: 13px;&quot;&gt;&lt;div style=&quot;text-align: left; display: inline !important;&quot;&gt;&lt;b&gt;&lt;span style=&quot;white-space: pre;&quot;&gt;&#x9;&lt;/span&gt;Source&lt;/b&gt;&lt;span style=&quot;font-weight: normal;&quot;&gt;: Arise from the mind’s interaction with consciousness and past impressions.&lt;/span&gt;&lt;/div&gt;&lt;/b&gt;&lt;br&gt;&lt;/div&gt;&lt;div style=&quot;text-align: left;&quot;&gt;&lt;br&gt;&lt;/div&gt;&lt;div style=&quot;text-align: left;&quot;&gt;&lt;br&gt;&lt;/div&gt;&lt;b style=&quot;font-family: &amp;quot;Helvetica Neue&amp;quot;; font-size: 13px;&quot;&gt;&lt;div style=&quot;text-align: left;&quot;&gt;&lt;b&gt;Memory&lt;/b&gt;&lt;span style=&quot;font-weight: normal;&quot;&gt;:&lt;/span&gt;&lt;/div&gt;&lt;/b&gt;&lt;div style=&quot;text-align: left;&quot;&gt;&lt;b style=&quot;text-align: center; font-family: &amp;quot;Helvetica Neue&amp;quot;; font-size: 13px;&quot;&gt;&lt;div style=&quot;text-align: left; display: inline !important;&quot;&gt;&lt;b&gt;&lt;span style=&quot;white-space: pre;&quot;&gt;&#x9;&lt;/span&gt;Definition&lt;/b&gt;&lt;span style=&quot;font-weight: normal;&quot;&gt;: The storehouse of past experiences and impressions (samskaras).&lt;/span&gt;&lt;/div&gt;&lt;/b&gt;&lt;br&gt;&lt;/div&gt;&lt;div style=&quot;text-align: left;&quot;&gt;&lt;b style=&quot;text-align: center; font-family: &amp;quot;Helvetica Neue&amp;quot;; font-size: 13px;&quot;&gt;&lt;div style=&quot;text-align: left; display: inline !important;&quot;&gt;&lt;b&gt;&lt;span style=&quot;white-space: pre;&quot;&gt;&#x9;&lt;/span&gt;Role&lt;/b&gt;&lt;span style=&quot;font-weight: normal;&quot;&gt;: Provides context for thoughts, emotions, and decisions, shaping how the mind interprets the present.&lt;/span&gt;&lt;/div&gt;&lt;/b&gt;&lt;br&gt;&lt;/div&gt;&lt;div style=&quot;text-align: left;&quot;&gt;&lt;b style=&quot;text-align: center; font-family: &amp;quot;Helvetica Neue&amp;quot;; font-size: 13px;&quot;&gt;&lt;div style=&quot;text-align: left; display: inline !important;&quot;&gt;&lt;b&gt;&lt;span style=&quot;white-space: pre;&quot;&gt;&#x9;&lt;/span&gt;Source&lt;/b&gt;&lt;span style=&quot;font-weight: normal;&quot;&gt;: Rooted in consciousness, stored within the mind.&lt;/span&gt;&lt;/div&gt;&lt;/b&gt;&lt;br&gt;&lt;/div&gt;&lt;div style=&quot;text-align: left;&quot;&gt;&lt;br&gt;&lt;/div&gt;&lt;div style=&quot;text-align: left;&quot;&gt;&lt;br&gt;&lt;/div&gt;&lt;b style=&quot;font-family: &amp;quot;Helvetica Neue&amp;quot;; font-size: 13px;&quot;&gt;&lt;div style=&quot;text-align: left;&quot;&gt;&lt;b&gt;Intellect (Buddhi)&lt;/b&gt;&lt;span style=&quot;font-weight: normal;&quot;&gt;:&lt;/span&gt;&lt;/div&gt;&lt;/b&gt;&lt;div style=&quot;text-align: left;&quot;&gt;&lt;b style=&quot;text-align: center; font-family: &amp;quot;Helvetica Neue&amp;quot;; font-size: 13px;&quot;&gt;&lt;div style=&quot;text-align: left; display: inline !important;&quot;&gt;&lt;b&gt;&lt;span style=&quot;white-space: pre;&quot;&gt;&#x9;&lt;/span&gt;Definition&lt;/b&gt;&lt;span style=&quot;font-weight: normal;&quot;&gt;: The faculty of discernment, analysis, and reasoning.&lt;/span&gt;&lt;/div&gt;&lt;/b&gt;&lt;br&gt;&lt;/div&gt;&lt;div style=&quot;text-align: left;&quot;&gt;&lt;b style=&quot;text-align: center; font-family: &amp;quot;Helvetica Neue&amp;quot;; font-size: 13px;&quot;&gt;&lt;div style=&quot;text-align: left; display: inline !important;&quot;&gt;&lt;b&gt;&lt;span style=&quot;white-space: pre;&quot;&gt;&#x9;&lt;/span&gt;Role&lt;/b&gt;&lt;span style=&quot;font-weight: normal;&quot;&gt;: Evaluates thoughts and emotions, guiding decisions with clarity and logic.&lt;/span&gt;&lt;/div&gt;&lt;/b&gt;&lt;br&gt;&lt;/div&gt;&lt;div style=&quot;text-align: left;&quot;&gt;&lt;b style=&quot;text-align: center; font-family: &amp;quot;Helvetica Neue&amp;quot;; font-size: 13px;&quot;&gt;&lt;div style=&quot;text-align: left; display: inline !important;&quot;&gt;&lt;b&gt;&lt;span style=&quot;white-space: pre;&quot;&gt;&#x9;&lt;/span&gt;Source&lt;/b&gt;&lt;span style=&quot;font-weight: normal;&quot;&gt;: A refined aspect of the mind, connected to consciousness.&lt;/span&gt;&lt;/div&gt;&lt;/b&gt;&lt;br&gt;&lt;/div&gt;&lt;div style=&quot;text-align: left;&quot;&gt;&lt;br&gt;&lt;/div&gt;&lt;div style=&quot;text-align: left;&quot;&gt;&lt;br&gt;&lt;/div&gt;&lt;b style=&quot;font-family: &amp;quot;Helvetica Neue&amp;quot;; font-size: 13px;&quot;&gt;&lt;div style=&quot;text-align: left;&quot;&gt;&lt;b&gt;Ego (Ahamkara)&lt;/b&gt;&lt;span style=&quot;font-weight: normal;&quot;&gt;:&lt;/span&gt;&lt;/div&gt;&lt;/b&gt;&lt;b style=&quot;font-family: &amp;quot;Helvetica Neue&amp;quot;; font-size: 13px;&quot;&gt;&lt;div style=&quot;text-align: left;&quot;&gt;&lt;b&gt;&lt;span style=&quot;white-space: pre;&quot;&gt;&#x9;&lt;/span&gt;Definition&lt;/b&gt;&lt;span style=&quot;font-weight: normal;&quot;&gt;: The sense of individual identity or “I-ness.”&lt;/span&gt;&lt;/div&gt;&lt;/b&gt;&lt;div style=&quot;text-align: left;&quot;&gt;&lt;b style=&quot;text-align: center; font-family: &amp;quot;Helvetica Neue&amp;quot;; font-size: 13px;&quot;&gt;&lt;div style=&quot;text-align: left; display: inline !important;&quot;&gt;&lt;b&gt;&lt;span style=&quot;white-space: pre;&quot;&gt;&#x9;&lt;/span&gt;Role&lt;/b&gt;&lt;span style=&quot;font-weight: normal;&quot;&gt;: Creates a sense of separateness, influencing thoughts and decisions based on personal identity&lt;/span&gt;&lt;/div&gt;&lt;/b&gt;&lt;/div&gt;&lt;div style=&quot;text-align: left;&quot;&gt;&lt;b style=&quot;text-align: center; font-family: &amp;quot;Helvetica Neue&amp;quot;; font-size: 13px;&quot;&gt;&lt;div style=&quot;text-align: left; display: inline !important;&quot;&gt;&lt;b&gt;&lt;span style=&quot;white-space: pre;&quot;&gt;&#x9;&lt;/span&gt;Source&lt;/b&gt;&lt;span style=&quot;font-weight: normal;&quot;&gt;: Emerges from the mind as a localized expression of consciousness.&lt;/span&gt;&lt;/div&gt;&lt;/b&gt;&lt;/div&gt;" style="text;html=1;align=center;verticalAlign=middle;resizable=0;points=[];autosize=1;strokeColor=none;fillColor=none;" vertex="1" parent="1">
          <mxGeometry x="85" y="-410" width="680" height="440" as="geometry" />
        </mxCell>
        <mxCell id="iMSMzoMcXIIhopY8OTby-7" value="&lt;div style=&quot;text-align: left;&quot;&gt;&lt;b style=&quot;font-family: &amp;quot;Helvetica Neue&amp;quot;; font-size: 13px;&quot;&gt;Intelligence – The Functional Expression of Mind and Intellect&lt;/b&gt;&lt;/div&gt;&lt;b style=&quot;font-family: &amp;quot;Helvetica Neue&amp;quot;; font-size: 13px;&quot;&gt;&lt;div style=&quot;text-align: left;&quot;&gt;&lt;b&gt;&lt;span style=&quot;white-space: pre;&quot;&gt;&#x9;&lt;/span&gt;Definition&lt;/b&gt;&lt;span style=&quot;font-weight: normal;&quot;&gt;: The ability to discern, understand, and act with clarity, encompassing cognitive, emotional, intuitive, creative, and spiritual dimensions.&lt;/span&gt;&lt;/div&gt;&lt;/b&gt;&lt;b style=&quot;font-family: &amp;quot;Helvetica Neue&amp;quot;; font-size: 13px;&quot;&gt;&lt;div style=&quot;text-align: left;&quot;&gt;&lt;b&gt;&lt;span style=&quot;white-space: pre;&quot;&gt;&#x9;&lt;/span&gt;Types&lt;/b&gt;&lt;span style=&quot;font-weight: normal;&quot;&gt; (as per Sri Sri Ravi Shankar):&lt;/span&gt;&lt;/div&gt;&lt;/b&gt;&lt;b style=&quot;font-family: &amp;quot;Helvetica Neue&amp;quot;; font-size: 13px;&quot;&gt;&lt;div style=&quot;text-align: left;&quot;&gt;&lt;b&gt;&lt;span style=&quot;white-space: pre;&quot;&gt;&#x9;&lt;span style=&quot;white-space: pre;&quot;&gt;&#x9;&lt;/span&gt;&lt;/span&gt;Cognitive Intelligence&lt;/b&gt;&lt;span style=&quot;font-weight: normal;&quot;&gt;: Analytical and problem-solving abilities, rooted in the intellect.&lt;/span&gt;&lt;/div&gt;&lt;/b&gt;&lt;b style=&quot;font-family: &amp;quot;Helvetica Neue&amp;quot;; font-size: 13px;&quot;&gt;&lt;div style=&quot;text-align: left;&quot;&gt;&lt;b&gt;&lt;span style=&quot;white-space: pre;&quot;&gt;&#x9;&lt;span style=&quot;white-space: pre;&quot;&gt;&#x9;&lt;/span&gt;&lt;/span&gt;Emotional Intelligence&lt;/b&gt;&lt;span style=&quot;font-weight: normal;&quot;&gt;: Managing emotions and empathy, linked to emotions and mind.&lt;/span&gt;&lt;/div&gt;&lt;/b&gt;&lt;b style=&quot;font-family: &amp;quot;Helvetica Neue&amp;quot;; font-size: 13px;&quot;&gt;&lt;div style=&quot;text-align: left;&quot;&gt;&lt;b&gt;&lt;span style=&quot;white-space: pre;&quot;&gt;&#x9;&lt;span style=&quot;white-space: pre;&quot;&gt;&#x9;&lt;/span&gt;&lt;/span&gt;Intuitive Intelligence&lt;/b&gt;&lt;span style=&quot;font-weight: normal;&quot;&gt;: Inner wisdom and gut feeling, connected to deeper consciousness.&lt;/span&gt;&lt;/div&gt;&lt;/b&gt;&lt;b style=&quot;font-family: &amp;quot;Helvetica Neue&amp;quot;; font-size: 13px;&quot;&gt;&lt;div style=&quot;text-align: left;&quot;&gt;&lt;b&gt;&lt;span style=&quot;white-space: pre;&quot;&gt;&#x9;&lt;span style=&quot;white-space: pre;&quot;&gt;&#x9;&lt;/span&gt;&lt;/span&gt;Creative Intelligence&lt;/b&gt;&lt;span style=&quot;font-weight: normal;&quot;&gt;: Imagination and innovation, arising from the mind’s interplay with consciousness.&lt;/span&gt;&lt;/div&gt;&lt;/b&gt;&lt;b style=&quot;font-family: &amp;quot;Helvetica Neue&amp;quot;; font-size: 13px;&quot;&gt;&lt;div style=&quot;text-align: left;&quot;&gt;&lt;b&gt;&lt;span style=&quot;white-space: pre;&quot;&gt;&#x9;&lt;span style=&quot;white-space: pre;&quot;&gt;&#x9;&lt;/span&gt;&lt;/span&gt;Spiritual Intelligence&lt;/b&gt;&lt;span style=&quot;font-weight: normal;&quot;&gt;: Awareness of self and universal connection, tied to the universal self.&lt;/span&gt;&lt;/div&gt;&lt;div style=&quot;text-align: left;&quot;&gt;&lt;b style=&quot;text-align: center;&quot;&gt;&lt;div style=&quot;text-align: left; display: inline !important;&quot;&gt;&lt;b&gt;&lt;span style=&quot;white-space: pre;&quot;&gt;&#x9;&lt;/span&gt;Role&lt;/b&gt;&lt;span style=&quot;font-weight: normal;&quot;&gt;: Integrates thoughts, emotions, and intellect to facilitate understanding and action.&lt;/span&gt;&lt;/div&gt;&lt;/b&gt;&lt;/div&gt;&lt;/b&gt;&lt;span style=&quot;font-width: normal; font-size: 9px; line-height: normal; font-family: Menlo; font-size-adjust: none; font-kerning: auto; font-variant-alternates: normal; font-variant-ligatures: normal; font-variant-numeric: normal; font-variant-east-asian: normal; font-variant-position: normal; font-feature-settings: normal; font-optical-sizing: auto; font-variation-settings: normal;&quot;&gt;&lt;div style=&quot;text-align: left;&quot;&gt;&lt;b style=&quot;font-family: &amp;quot;Helvetica Neue&amp;quot;; font-size: 13px;&quot;&gt;&lt;span style=&quot;white-space: pre;&quot;&gt;&#x9;&lt;/span&gt;Connection&lt;/b&gt;&lt;span style=&quot;font-family: &amp;quot;Helvetica Neue&amp;quot;; font-size: 13px;&quot;&gt;: A dynamic expression of the mind, rooted in consciousness.&lt;/span&gt;&lt;/div&gt;&lt;/span&gt;" style="text;html=1;align=center;verticalAlign=middle;resizable=0;points=[];autosize=1;strokeColor=none;fillColor=none;" vertex="1" parent="1">
          <mxGeometry x="60" y="90" width="900" height="160" as="geometry" />
        </mxCell>
        <mxCell id="iMSMzoMcXIIhopY8OTby-8" value="&lt;div style=&quot;text-align: left;&quot;&gt;&lt;b style=&quot;font-family: &amp;quot;Helvetica Neue&amp;quot;; font-size: 13px;&quot;&gt;Decisions – The Outcome of Intellect and Intelligence&lt;/b&gt;&lt;/div&gt;&lt;b style=&quot;font-family: &amp;quot;Helvetica Neue&amp;quot;; font-size: 13px;&quot;&gt;&lt;div style=&quot;text-align: left;&quot;&gt;&lt;b&gt;&lt;span style=&quot;white-space: pre;&quot;&gt;&#x9;&lt;/span&gt;Definition&lt;/b&gt;&lt;span style=&quot;font-weight: normal;&quot;&gt;: Choices made by the intellect, guided by thoughts, emotions, memory, and intelligence.&lt;/span&gt;&lt;/div&gt;&lt;/b&gt;&lt;b style=&quot;font-family: &amp;quot;Helvetica Neue&amp;quot;; font-size: 13px;&quot;&gt;&lt;div style=&quot;text-align: left;&quot;&gt;&lt;b&gt;&lt;span style=&quot;white-space: pre;&quot;&gt;&#x9;&lt;/span&gt;Role&lt;/b&gt;&lt;span style=&quot;font-weight: normal;&quot;&gt;: Direct actions and shape life experiences, reflecting the mind’s alignment with consciousness.&lt;/span&gt;&lt;/div&gt;&lt;/b&gt;&lt;span style=&quot;font-width: normal; font-size: 9px; line-height: normal; font-family: Menlo; font-size-adjust: none; font-kerning: auto; font-variant-alternates: normal; font-variant-ligatures: normal; font-variant-numeric: normal; font-variant-east-asian: normal; font-variant-position: normal; font-feature-settings: normal; font-optical-sizing: auto; font-variation-settings: normal;&quot;&gt;&lt;div style=&quot;text-align: left;&quot;&gt;&lt;b style=&quot;font-family: &amp;quot;Helvetica Neue&amp;quot;; font-size: 13px;&quot;&gt;&lt;span style=&quot;white-space: pre;&quot;&gt;&#x9;&lt;/span&gt;Source&lt;/b&gt;&lt;span style=&quot;font-family: &amp;quot;Helvetica Neue&amp;quot;; font-size: 13px;&quot;&gt;: Driven by the intellect, influenced by the mind’s components and consciousness.&lt;/span&gt;&lt;/div&gt;&lt;/span&gt;" style="text;html=1;align=center;verticalAlign=middle;resizable=0;points=[];autosize=1;strokeColor=none;fillColor=none;" vertex="1" parent="1">
          <mxGeometry x="60" y="320" width="630" height="70" as="geometry" />
        </mxCell>
        <mxCell id="iMSMzoMcXIIhopY8OTby-9" value="&lt;div style=&quot;text-align: left;&quot;&gt;&lt;b style=&quot;font-family: &amp;quot;Helvetica Neue&amp;quot;; font-size: 13px;&quot;&gt;Wisdom (Vijnana) – The Culmination of Awareness&lt;/b&gt;&lt;/div&gt;&lt;b style=&quot;font-family: &amp;quot;Helvetica Neue&amp;quot;; font-size: 13px;&quot;&gt;&lt;div style=&quot;text-align: left;&quot;&gt;&lt;b&gt;&lt;span style=&quot;white-space: pre;&quot;&gt;&#x9;&lt;/span&gt;Definition&lt;/b&gt;&lt;span style=&quot;font-weight: normal;&quot;&gt;: The intuitive,&lt;/span&gt;&lt;span style=&quot;font-weight: normal;&quot;&gt;&amp;nbsp;&lt;/span&gt;&lt;/div&gt;&lt;/b&gt;&lt;b style=&quot;font-family: &amp;quot;Helvetica Neue&amp;quot;; font-size: 13px;&quot;&gt;&lt;div style=&quot;text-align: left;&quot;&gt;&lt;b&gt;&lt;span style=&quot;white-space: pre;&quot;&gt;&#x9;&lt;/span&gt;Role&lt;/b&gt;&lt;span style=&quot;font-weight: normal;&quot;&gt;: Transcends intellect and ego, offering clarity and insight beyond ordinary mental processes.&lt;/span&gt;&lt;/div&gt;&lt;/b&gt;&lt;span style=&quot;font-width: normal; font-size: 9px; line-height: normal; font-family: Menlo; font-size-adjust: none; font-kerning: auto; font-variant-alternates: normal; font-variant-ligatures: normal; font-variant-numeric: normal; font-variant-east-asian: normal; font-variant-position: normal; font-feature-settings: normal; font-optical-sizing: auto; font-variation-settings: normal;&quot;&gt;&lt;div style=&quot;text-align: left;&quot;&gt;&lt;b style=&quot;font-family: &amp;quot;Helvetica Neue&amp;quot;; font-size: 13px;&quot;&gt;&lt;span style=&quot;white-space: pre;&quot;&gt;&#x9;&lt;/span&gt;Source&lt;/b&gt;&lt;span style=&quot;font-family: &amp;quot;Helvetica Neue&amp;quot;; font-size: 13px;&quot;&gt;: Emerges from the intuitive body (vijnanamaya kosha), rooted in consciousness.&lt;/span&gt;&lt;/div&gt;&lt;/span&gt;" style="text;html=1;align=center;verticalAlign=middle;resizable=0;points=[];autosize=1;strokeColor=none;fillColor=none;" vertex="1" parent="1">
          <mxGeometry x="60" y="450" width="620" height="70" as="geometry" />
        </mxCell>
        <mxCell id="iMSMzoMcXIIhopY8OTby-10" value="" style="whiteSpace=wrap;html=1;" vertex="1" parent="1">
          <mxGeometry x="-670" y="-790" width="120" height="60" as="geometry" />
        </mxCell>
        <mxCell id="iMSMzoMcXIIhopY8OTby-11" value="Planguage/Competitive Engineering/ValueFirst&lt;div&gt;&lt;br&gt;&lt;div&gt;&lt;span style=&quot;white-space: pre;&quot;&gt;&#x9;&lt;/span&gt;&lt;br&gt;&lt;/div&gt;&lt;/div&gt;" style="text;html=1;align=left;verticalAlign=middle;resizable=0;points=[];autosize=1;strokeColor=none;fillColor=none;" vertex="1" parent="1">
          <mxGeometry x="1150" y="-590" width="270" height="60" as="geometry" />
        </mxCell>
        <mxCell id="iMSMzoMcXIIhopY8OTby-12" value="&lt;div&gt;TwinPod Server&lt;/div&gt;&lt;div&gt;&lt;span style=&quot;white-space: pre;&quot;&gt;&#x9;TwinPod&lt;/span&gt;&lt;br&gt;&lt;/div&gt;&lt;div&gt;&lt;span style=&quot;white-space: pre;&quot;&gt;&#x9;&lt;/span&gt;&lt;br&gt;&lt;div&gt;&lt;span style=&quot;white-space: pre;&quot;&gt;&#x9;&lt;/span&gt;&lt;br&gt;&lt;/div&gt;&lt;/div&gt;" style="text;html=1;align=left;verticalAlign=middle;resizable=0;points=[];autosize=1;strokeColor=none;fillColor=none;" vertex="1" parent="1">
          <mxGeometry x="1150" y="-430" width="110" height="70" as="geometry" />
        </mxCell>
      </root>
    </mxGraphModel>
  </diagram>
</mxfile>
